# xmcd
#
# Track frame offsets:
#	150
#	13892
#	27490
#	44342
#	59770
#	76257
#	92362
#	107672
#	120562
#	134105
#	149275
#	167670
#	185260
#	200912
#	219342
#
# Disc length: 3180 seconds
#
# Revision: 2
# Processed by: cddbd v1.5.1PL2 Copyright (c) Steve Scherf et al.
# Submitted via: audiograbber 1.83.01
#
DISCID=da0c6a0f
DTITLE=Music Maestro - MM6268
DYEAR=1900
DGENRE=Karaoke
TTITLE0=Loveless, Patty - Can't Get Enough
TTITLE1=Montgomery Gentry - Hillbilly Shoes
TTITLE2=Church, Claudia - What's The Matter With You Baby
TTITLE3=Andrews, Jessica - I Will Be There For You
TTITLE4=Lonestar - Saturday Night
TTITLE5=Sons Of The Desert - What About You
TTITLE6=Walker, Clay - She's Always Right
TTITLE7=Triggs, Trini - Horse To Mexico
TTITLE8=Grand, Gil - Let's Start Livin'
TTITLE9=Harling, Keith - There Goes The Neighborhood
TTITLE10=Prosser, James - Life Goes On
TTITLE11=Paisley, Brad - Who Needs Pictures
TTITLE12=Travis, Randy - Stranger In My Mirror
TTITLE13=McBride, Martina - Whatever You Say
TTITLE14=South Sixty Five - No Easy Goodbye
EXTD=As Listed iIn KJ Pro  Also A Number Of Songs On Previous Submission Are Er
EXTD=roneous
EXTT0=
EXTT1=
EXTT2=
EXTT3=
EXTT4=
EXTT5=
EXTT6=
EXTT7=
EXTT8=
EXTT9=
EXTT10=
EXTT11=
EXTT12=
EXTT13=
EXTT14=
PLAYORDER=
